<svg xmlns="http://www.w3.org/2000/svg" version="1.1" xmlns:xlink="http://www.w3.org/1999/xlink" xmlns:svgjs="http://svgjs.dev/svgjs" viewBox="0 0 800 800"><defs><linearGradient x1="50%" y1="0%" x2="50%" y2="100%" id="cccoil-grad"><stop stop-color="#6ea3ca" stop-opacity="1" offset="0%"></stop><stop stop-color="#6ea3ca" stop-opacity="1" offset="100%"></stop></linearGradient></defs><g stroke="url(#cccoil-grad)" fill="none" stroke-linecap="round"><circle r="405" cx="400" cy="400" stroke-width="1" stroke-dasharray="1425 2545" opacity="0.09"></circle><circle r="391.5" cx="400" cy="400" stroke-width="1" stroke-dasharray="1330 2460" transform="rotate(12, 400, 400)" opacity="0.59"></circle><circle r="378" cx="400" cy="400" stroke-width="1" stroke-dasharray="1238 2375" transform="rotate(25, 400, 400)" opacity="0.96"></circle><circle r="364.5" cx="400" cy="400" stroke-width="1" stroke-dasharray="1150 2290" transform="rotate(37, 400, 400)" opacity="0.79"></circle><circle r="351" cx="400" cy="400" stroke-width="1" stroke-dasharray="1065 2205" transform="rotate(50, 400, 400)" opacity="0.39"></circle><circle r="337.5" cx="400" cy="400" stroke-width="1" stroke-dasharray="983 2121" transform="rotate(62, 400, 400)" opacity="0.49"></circle><circle r="324" cx="400" cy="400" stroke-width="1" stroke-dasharray="904 2036" transform="rotate(74, 400, 400)" opacity="0.50"></circle><circle r="310.5" cx="400" cy="400" stroke-width="1" stroke-dasharray="829 1951" transform="rotate(87, 400, 400)" opacity="0.09"></circle><circle r="297" cx="400" cy="400" stroke-width="1" stroke-dasharray="757 1866" transform="rotate(99, 400, 400)" opacity="0.85"></circle><circle r="283.5" cx="400" cy="400" stroke-width="1" stroke-dasharray="688 1781" transform="rotate(112, 400, 400)" opacity="0.74"></circle><circle r="270" cx="400" cy="400" stroke-width="1" stroke-dasharray="622 1696" transform="rotate(124, 400, 400)" opacity="0.86"></circle><circle r="256.5" cx="400" cy="400" stroke-width="1" stroke-dasharray="560 1612" transform="rotate(137, 400, 400)" opacity="0.57"></circle><circle r="243" cx="400" cy="400" stroke-width="1" stroke-dasharray="501 1527" transform="rotate(149, 400, 400)" opacity="0.65"></circle><circle r="229.5" cx="400" cy="400" stroke-width="1" stroke-dasharray="446 1442" transform="rotate(161, 400, 400)" opacity="0.08"></circle><circle r="216" cx="400" cy="400" stroke-width="1" stroke-dasharray="393 1357" transform="rotate(174, 400, 400)" opacity="0.40"></circle><circle r="202.5" cx="400" cy="400" stroke-width="1" stroke-dasharray="344 1272" transform="rotate(186, 400, 400)" opacity="0.32"></circle><circle r="189" cx="400" cy="400" stroke-width="1" stroke-dasharray="298 1188" transform="rotate(199, 400, 400)" opacity="0.99"></circle><circle r="175.5" cx="400" cy="400" stroke-width="1" stroke-dasharray="256 1103" transform="rotate(211, 400, 400)" opacity="1.00"></circle><circle r="162" cx="400" cy="400" stroke-width="1" stroke-dasharray="216 1018" transform="rotate(223, 400, 400)" opacity="0.25"></circle><circle r="148.5" cx="400" cy="400" stroke-width="1" stroke-dasharray="180 933" transform="rotate(236, 400, 400)" opacity="0.58"></circle><circle r="135" cx="400" cy="400" stroke-width="1" stroke-dasharray="147 848" transform="rotate(248, 400, 400)" opacity="0.13"></circle><circle r="121.5" cx="400" cy="400" stroke-width="1" stroke-dasharray="118 763" transform="rotate(261, 400, 400)" opacity="0.24"></circle><circle r="108" cx="400" cy="400" stroke-width="1" stroke-dasharray="92 679" transform="rotate(273, 400, 400)" opacity="0.88"></circle><circle r="94.5" cx="400" cy="400" stroke-width="1" stroke-dasharray="69 594" transform="rotate(286, 400, 400)" opacity="0.72"></circle><circle r="81" cx="400" cy="400" stroke-width="1" stroke-dasharray="49 509" transform="rotate(298, 400, 400)" opacity="0.70"></circle><circle r="67.5" cx="400" cy="400" stroke-width="1" stroke-dasharray="33 424" transform="rotate(310, 400, 400)" opacity="0.54"></circle><circle r="54" cx="400" cy="400" stroke-width="1" stroke-dasharray="20 339" transform="rotate(323, 400, 400)" opacity="0.21"></circle><circle r="40.5" cx="400" cy="400" stroke-width="1" stroke-dasharray="10 254" transform="rotate(335, 400, 400)" opacity="0.52"></circle><circle r="27" cx="400" cy="400" stroke-width="1" stroke-dasharray="3 170" transform="rotate(348, 400, 400)" opacity="0.21"></circle><circle r="13.5" cx="400" cy="400" stroke-width="1" stroke-dasharray="0 85" transform="rotate(360, 400, 400)" opacity="0.35"></circle></g></svg>